<svg id="Layer_1" data-name="Layer 1" xmlns="http://www.w3.org/2000/svg" viewBox="0 0 2428.84 345.77"><defs><style>.cls-1{fill:#469eb4;}.cls-2{fill:#82c0ca;}.cls-3{fill:#429db4;}.cls-4{fill:#f7a52d;}</style></defs><g id="Layer_2" data-name="Layer 2"><g id="Layer_1-2" data-name="Layer 1-2"><path class="cls-1" d="M585.78,292.22,399.89,51.65a42.54,42.54,0,0,0-67.29,0L230.53,182.58,356,345.77H559.48C587.09,345.77,602.65,314.06,585.78,292.22Z"/><path class="cls-2" d="M111.75,143.89,9,276.86C-12.72,305,7.32,345.77,42.84,345.77H335L179,143.89a42.52,42.52,0,0,0-67.25,0Z"/><path class="cls-3" d="M649.09,87h62.09c48.68,0,77.52,29,77.52,80.46v.26c0,51.61-28.73,81.92-77.52,81.92H649.09Zm58,134.44C737.51,221.44,754,203,754,167.8v-.22c0-33.92-17-52.52-46.88-52.52h-24V221.44Z"/><path class="cls-3" d="M806.59,215v-.23c0-22,17-34.82,47-36.73l29.87-1.81v-7.44c0-10.7-7-17.35-19.84-17.35-12.28,0-19.72,5.75-21.29,13.52l-.23,1H812l.12-1.35c1.8-22.32,21-38.32,52.85-38.32,31.21,0,51.38,16.12,51.38,40.46v82.82h-32.9v-18h-.68c-6.87,12.4-19.72,19.95-35.61,19.95C822.93,251.53,806.59,236.31,806.59,215Zm51.28,12.5c14.76,0,25.58-9.46,25.58-22.08v-8.72l-24.91,1.58c-12.73.79-19.38,6.2-19.38,14.76v.23C839.16,222.23,846.49,227.52,857.87,227.52Z"/><path class="cls-3" d="M943,287.92V263.47a56.22,56.22,0,0,0,11,1.13c9.8,0,15.21-2.82,18.14-11l1.46-4L931,128.81h36.18l25.46,94.43h.91l25.57-94.43h34.71l-41.5,122.91c-9.46,28.51-25.69,37.64-52.51,37.64A103.14,103.14,0,0,1,943,287.92Z"/><path class="cls-3" d="M1103.58,229h-.67v20.62H1070V87h32.91v62.77h.67c6.65-14.65,20.06-23.44,37.3-23.44,30.32,0,49.13,23.44,49.13,62.77v.11c0,39.22-18.81,62.88-49.24,62.88C1123.42,252.09,1110.12,243.3,1103.58,229Zm53-39.78v-.11c0-22.09-10.37-35.5-26.71-35.5-15.89,0-26.93,13.75-26.93,35.5v.11c0,21.86,10.93,35.61,26.93,35.61,16.31,0,26.68-13.63,26.68-35.61Z"/><path class="cls-3" d="M1210.84,128.81h32.9v21.07h.68c3.6-14.87,13.41-23.55,27.49-23.55a37.81,37.81,0,0,1,9.47,1.24v29c-2.71-1.12-7.21-1.8-12-1.8-16.22,0-25.69,9.69-25.69,27.27v67.61h-32.9Z"/><path class="cls-3" d="M1290.37,189.44v-.12c0-38.42,22.65-63,58-63s57.58,24,57.58,60.51V197h-83.16c.34,19.27,10.82,30.53,27.61,30.53,13.52,0,21.75-7.43,24.12-14.19l.22-.68H1405l-.34,1.24c-3.72,17.8-20.39,38.2-54.88,38.2C1312.79,252.09,1290.37,228.09,1290.37,189.44Zm32.79-13.19h51.27c-2-16.68-11.83-25.35-25.47-25.35S1325.3,159.91,1323.16,176.25Z"/><path class="cls-3" d="M1422.19,215v-.23c0-22,17-34.82,47-36.73l29.86-1.81v-7.44c0-10.7-7-17.35-19.83-17.35-12.29,0-19.73,5.75-21.3,13.52l-.23,1H1427.6l.12-1.35c1.8-22.32,21-38.32,52.85-38.32,31.21,0,51.38,16.12,51.38,40.46v82.82h-33v-18h-.68c-6.87,12.4-19.72,19.95-35.61,19.95C1438.53,251.53,1422.19,236.31,1422.19,215Zm51.27,12.5c14.76,0,25.58-9.46,25.58-22.08v-8.72l-24.91,1.58c-12.73.79-19.38,6.2-19.38,14.76v.23C1454.75,222.23,1462.08,227.52,1473.46,227.52Z"/><path class="cls-3" d="M1558.17,87h32.91v90.15h.67l40.8-48.34h37.29l-45.63,51.91,47.89,68.85h-38l-34.59-49.36-8.45,9.36v40h-32.91Z"/><path class="cls-3" d="M1737.52,87h34v66h73.25V87h34V249.61h-34V181.1h-73.25v68.51h-34Z"/><path class="cls-3" d="M1902.58,189.44v-.12c0-38.42,22.65-63,58-63s57.59,24,57.59,60.51V197H1935c.34,19.27,10.82,30.53,27.61,30.53,13.52,0,21.75-7.43,24.12-14.19l.22-.68h30.2l-.34,1.24c-3.72,17.8-20.39,38.2-54.88,38.2C1925,252.09,1902.58,228.09,1902.58,189.44Zm32.79-13.19h51.27c-2-16.68-11.83-25.35-25.46-25.35S1937.51,159.91,1935.37,176.25Z"/><path class="cls-3" d="M2034.4,215v-.23c0-22,17-34.82,47-36.73l29.86-1.81v-7.44c0-10.7-7-17.35-19.83-17.35-12.29,0-19.73,5.75-21.3,13.52l-.23,1h-30.1l.12-1.35c1.8-22.32,21-38.32,52.85-38.32,31.21,0,51.38,16.12,51.38,40.46v82.82h-32.9v-18h-.68c-6.87,12.4-19.72,19.95-35.61,19.95C2050.74,251.53,2034.4,236.31,2034.4,215Zm51.27,12.5c14.76,0,25.58-9.46,25.58-22.08v-8.72l-24.91,1.58c-12.73.79-19.38,6.2-19.38,14.76v.23C2067,222.23,2074.29,227.52,2085.67,227.52Z"/><path class="cls-3" d="M2170.05,87H2203V249.61h-32.9Z"/><path class="cls-3" d="M2237.63,215.81V153.6h-16.79V128.81h16.79V99.29h33.25v29.52H2293V153.6h-22.08v58.6c0,11.27,5.07,15.1,15,15.1a56.15,56.15,0,0,0,7.1-.56v24.11a101.82,101.82,0,0,1-15.89,1.24C2250.25,252.09,2237.63,241.72,2237.63,215.81Z"/><path class="cls-3" d="M2315.81,87h32.91v62.66h.67c6.2-15,18.94-23.33,37.08-23.33,26.14,0,42.37,18.26,42.37,47.44v75.84h-32.91V180.53c0-16.9-8.34-26.93-23.32-26.93-14.54,0-23.89,11.05-23.89,26.82v69.19h-32.91Z"/><path class="cls-4" d="M145.4,110.36a59.14,59.14,0,0,1,47.1,23.13l27.69,35.83L307.24,56.66a87.35,87.35,0,0,0-166,53.86C142.6,110.42,144,110.36,145.4,110.36Z"/></g></g></svg>